<?xml version="1.0" encoding="utf-8"?>
<!-- Generator: Adobe Illustrator 19.2.1, SVG Export Plug-In . SVG Version: 6.00 Build 0)  -->
<svg version="1.1" id="Layer_1" xmlns="http://www.w3.org/2000/svg" xmlns:xlink="http://www.w3.org/1999/xlink" x="0px" y="0px"
	 viewBox="0 0 32 32" style="enable-background:new 0 0 32 32;" xml:space="preserve">
<style type="text/css">
	.st0{fill:#231F20;}
</style>
<path class="st0" d="M0,9.3l1.2,1.3l1.4-0.9c0.4-0.3,0.7,0.1,0.7,0.6c-0.4,5-1.1,5.8-0.9,8.3c0.5,4.8,5.7,4,5.7,4s-1.2-3.7,0.7-8.4
	s4.6-4.7,4.4-2.2S9,23.3,18,22.6c0,0-1.4-3.1,1-8.1s5.4-5.8,4.4-0.3c-1.1,6-2,10.2-0.6,11.7c1.3,1.6,6.5,3.6,9.3-3.4
	c0,0-1.8,1.2-3.1-1.2c-1.7-3.2,1.9-12.7,0.4-14.8c-1.5-2-4.7-3.3-10.2,2.6c0.4-4.8-5.5-6.8-10.8,0c0,0,0.4-2-0.5-3.2
	S6.3,3.6,4.1,5.5C2,7.5,0,9.3,0,9.3z"/>
</svg>
