<?xml version="1.0" encoding="utf-8"?>
<!-- Generator: Adobe Illustrator 19.2.1, SVG Export Plug-In . SVG Version: 6.00 Build 0)  -->
<svg version="1.1" xmlns="http://www.w3.org/2000/svg" xmlns:xlink="http://www.w3.org/1999/xlink" x="0px" y="0px"
	 viewBox="0 0 1920 1080" style="enable-background:new 0 0 1920 1080;" xml:space="preserve">
<style type="text/css">
	.st0{display:none;}
	.st1{display:inline;fill:#DDDDDD;}
	.st2{fill:#DDDDDD;}
</style>
<g id="Layer_1" class="st0">
	<path class="st1" d="M216.6,507.8l15.5,17.4l18.7-12.4c5.3-3.5,9.3,2,8.8,8.4c-5,66.8-15.2,77.4-12,111.2
		c6.1,64.3,76.9,53.8,76.9,53.8s-16.4-49.2,9.6-112.7c26-63.5,62.1-63.5,58.8-29.3s-54.9,151.8,65,142c0,0-18.3-41.4,13-108.3
		s72.3-77.3,58.5-4.1c-15.1,80.1-26.2,136.8-8.3,157.7c18,20.9,86.6,48.7,125-46c0,0-24,16-41-15.7c-23.3-43.4,25.9-171.1,5.4-198
		C590.1,445,548,427.6,474,506.5c5.5-64.3-73.8-91.1-144.3-0.6c0,0,4.7-27.2-6.1-43s-22.4-32.3-51.3-5.9
		C243.3,483.4,216.6,507.8,216.6,507.8z"/>
	<path class="st1" d="M1683.7,690.7c-5.2,0-10.3-3.2-15.5-9.7c-8.2-10.8-12-27-11.6-48.6c0.1-5.9,0.5-11.9,0.9-17.9
		c0.5-1.2,1.1-2.2,1.6-3.4c0.3-1,0.7-2,1-3.1c-0.6-3.3-0.8-7.5-0.6-12.7c0.6-3,1.3-6.5,2.2-10.9c-0.2,0-0.4,0-0.6,0.1
		c1.3-6.7,3.4-16.2,6.4-28.8c5.4-23,8.3-40.5,8.7-52.5c0.4-17.6-2.8-31.1-9.7-40.6c-9-11.6-24.1-16.5-45.1-14.8
		c-24.5,2.1-50,11.8-76.7,29c-11.2,7.3-21.9,15.9-32.2,25.8l23.5-130.1c0,0,17.2-81.8-19.7-109.1c-2.5-1.2-5.1-2.3-7.9-3.1
		c-4.4-2.2-9.4-3.1-14.8-2.7c-6.4,0.4-18.7,9-36.7,25.8c-24.9,23.2-38.4,35.6-40.6,37.4l15.5,17.4c12-9,19.3-13.5,21.9-13.5
		c2.8,0,4.6,1.3,5.4,4c0.6,1.9-2,25.6-5.7,54.3c-3.5,26.8-6.4,59.6-6.9,65.3c-1.8,16-4,35.2-6.7,57.9c-5.6,48.2-8.8,83.9-9.7,107.1
		c-0.9,20.7,3.9,37,14.2,49.1c12.9,14.6,33.9,21.5,63.1,20.7c-3.9-9-5.4-25.8-4.5-50.2c0.9-27.9,1.6-63.3,20.3-88.2
		c16.9-22.8,41.4-52,55.7-52c9.5,0,13.8,8,13,23.8c-0.5,10.3-2.9,52.1-7.4,71.6c-0.2,0.9-0.3,1.7-0.6,2.7c0,0-0.1,0-0.1,0
		c-0.3,1.3-0.5,2.5-0.7,3.9c-1.7,8.2-3.2,16-4.1,23.1c-5.6,32.3-8.7,56.1-9.2,70.8c-1.3,41.5,15.7,62.9,50.9,64.2
		c38.7,1.3,66.4-21,83.1-67C1696.7,688.9,1690.1,690.7,1683.7,690.7z"/>
	<path class="st1" d="M1355.8,447.2c-35.6-0.4-71.7,19.1-108.2,58.6c0.9-3.9,1.3-7.7,1.3-11.6c0-13.7-3.4-25.7-10.3-35.8
		c-5.9-8.7-13.6-13.3-23-13.9l0.1-0.1c0,0-37-18.5-89.4,56.7c0,0-0.1,0.1-0.1,0.1c-15.8,20.6-20.4-5.8-20.4-5.8
		c-1.3-11.2-2.4-22.3-3.2-33.5c-3.4-12.5-11.8-18.7-25.1-18.7c-16.8,0-32.4,7.5-47,22.6c-3.9,4.3-14,17.6-30.3,39.9
		c0.4-3.5,0.6-7.2,0.6-11.2c0-13.6-3-25.4-9-35.5c-4.1-6.3-8.8-10.6-14.2-13.1c-16.3-10.3-56.5-0.9-86.3,43.7
		c-9.2,13.7-15.6,18.8-20.2,19.2c-9.5-56.1-60.7-77.5-131.6-61c-34.2,8-57.9,27.5-74.4,47.2c-3.8,4.4-7.4,9.2-10.6,14.2
		c-19.5,29.5-24.6,58.1-24.6,58.1c-1.7,9.5-2.3,19.3-1.7,29.2c1.3,24.5,8.4,44.9,21.3,61.2c17.6,21.9,43.4,32.9,77.3,32.9
		c32.5,0,60.7-9.3,84.8-27.6c30.7-29.1,42.3-51,51.4-75.8l0,0c0-0.1,0-0.1,0.1-0.2c3.5-9.7,6.7-19.7,10.5-30.8
		c13.5-39.7,49-71.7,56.3-72.9c8-1.3,9.8,0.5,10.7,5.4c4.8,26.9-20.9,99.2-22.3,127.4c-1.1,22.9,4.1,40,14.8,51.3
		c12.5,13.4,33.5,19.7,63.1,18.8c-3-9.9-3.9-26-3.9-48.3c0-75.1,29.6-108.9,44.4-108.9c14.9,0,24.5,40,44.9,40
		c33.7,0,68.5-82.8,80.2-82.8c11.7,0,10.5,102.2-3.2,170.9c-13.7,68.7-21,79-21.9,102.5c-1.3,41.5,15.7,62.9,50.9,64.2
		c38.6,1.3,66.4-21.1,83.1-67c-6.9,3.4-13.5,5.2-20,5.2c-5.2,0-10.3-3.3-15.5-9.7c-8.2-10.8-12-27-11.6-48.6
		c0.4-19.4,1.9-3.5,4.5-23.8c12.5,4.7,26.8,6,43.2,3.9c46.4-5.6,83.1-27.5,110.2-65.7c19.3-27.1,30.7-56.7,34.1-88.9
		c0.4-3.9,0.6-7.9,0.6-12.2C1416.3,471.3,1396.2,448.1,1355.8,447.2z M731.9,636c-34.8,0-28.5-70.2-6.4-104.4
		c14.9-23.1,35.1-35.4,54.1-35.4C818.7,496.2,803.2,636,731.9,636z M1311.3,589c-15.5,23.2-31.8,35.2-48.9,36.1
		c-7.7,0.4-13.1-1.6-16.1-6.1c-3-4.5-4.3-10.4-3.9-17.7c1.3-16.3,9-34.6,23.2-54.7c15.5-22.3,30.7-33.5,45.7-33.5
		c13.7,0,20.4,8.2,20,24.5C1330.9,552,1324.2,569.2,1311.3,589z"/>
</g>
<g id="Layer_2">
	<path class="st2" d="M216.6,507.8l15.5,17.4l18.7-12.4c5.3-3.5,9.3,2,8.8,8.4c-5,66.8-15.2,77.4-12,111.2
		c6.1,64.3,76.9,53.8,76.9,53.8s-16.4-49.2,9.6-112.7c26-63.5,62.1-63.5,58.8-29.3s-54.9,151.8,65,142c0,0-18.3-41.4,13-108.3
		s72.3-77.3,58.5-4.1c-15.1,80.1-26.2,136.8-8.3,157.7c18,20.9,86.6,48.7,125-46c0,0-24,16-41-15.7c-23.3-43.4,25.9-171.1,5.4-198
		C590.1,445,548,427.6,474,506.5c5.5-64.3-73.8-91.1-144.3-0.6c0,0,4.7-27.2-6.1-43s-22.4-32.3-51.3-5.9
		C243.3,483.4,216.6,507.8,216.6,507.8z"/>
	<path class="st2" d="M1621.4,447.8c-52.2,3.4-98.6,44.9-108.9,54.7c0,0,28.3-92.6,27.4-164.2c-0.9-64.6-27.7-112.3-83-55.1
		c-23.6,24.5-38.4,35.6-40.6,37.4l15.5,17.4c12-9,19.3-13.5,21.9-13.5c2.8,0,5.2,1.2,5.4,4c10.7,144.6-57.2,269.1-18.7,328.7
		c19.6,30.2,67,25.7,67,25.7c-33.8-140.2,156.4-352.2,62.2,5.5c-10.6,40.1,15.7,62.9,50.9,64.2c38.7,1.3,66.4-21,83.1-67
		c-49.5,21-53.3-30.1-44.2-90.2C1670.2,523.7,1703.5,442.4,1621.4,447.8z"/>
	<path class="st2" d="M1355.8,447.2c-35.6-0.6-71.7,19.1-108.2,58.6c5.1-84.4-70.3-85.3-121.4-4.6c0,0-0.1,0.1-0.1,0.1
		c-15.8,20.6-18.9-20-23.6-39.3c-7.9-32-61.9-28.2-102.4,43.8c2.5-47.4-17.2-57.3-22.6-59.8c-16.3-10.3-56.5-0.9-86.3,43.7
		c-9.2,13.7-15.6,18.8-20.2,19.2c-9.5-56.1-60.7-77.5-131.6-61c-34.2,8-57.9,27.5-74.4,47.2c-3.8,4.4-7.4,9.2-10.6,14.2
		c-19.5,29.5-24.6,58.1-24.6,58.1c-1.7,9.5-2.3,19.3-1.7,29.2c1.3,24.5,8.4,44.9,21.3,61.2c17.6,21.9,43.4,32.9,77.3,32.9
		c32.5,0,60.7-9.3,84.8-27.6c30.7-29.1,42.3-51,51.4-75.8l0,0c0-0.1,0-0.1,0.1-0.2c3.5-9.7,6.7-19.7,10.5-30.8
		c13.5-39.7,49-71.7,56.3-72.9c8-1.3,9.8,0.5,10.7,5.4c4.8,26.9-20.9,99.2-22.3,127.4c-1.1,22.9,4.1,40,14.8,51.3
		c12.5,13.4,33.5,19.7,63.1,18.8c-19.3-113.5,25.7-157.2,40.6-157.2c14.9,0,24.5,40,44.9,40c33.7,0,68.5-89.7,80.2-82.8
		c103.7,60.3-140.3,321.7,25.7,337.6c38.5,3.7,66.4-21.1,83.1-67c-55.5,26.6-45.1-56.7-42.5-76.9c10,7.1,96.1,16.3,153.3-61.8
		C1405.6,585.2,1454.7,449,1355.8,447.2z M731.9,636c-34.8,0-28.5-70.2-6.4-104.4c14.9-23.1,35.1-35.4,54.1-35.4
		C818.7,496.2,803.2,636,731.9,636z M1311.3,589c-15.5,23.2-31.8,35.2-48.9,36.1c-7.7,0.4-13.1-1.6-16.1-6.1
		c-3-4.5-4.3-10.4-3.9-17.7c1.3-16.3,9-34.6,23.2-54.7c15.5-22.3,30.7-33.5,45.7-33.5c13.7,0,20.4,8.2,20,24.5
		C1330.9,552,1324.2,569.2,1311.3,589z"/>
</g>
</svg>
